<?xml version="1.0" encoding="utf-8"?>
<svg version="1.1" id="Layer_1" x="0px" y="0px" viewBox="0 0 1000 1000" enable-background="new 0 0 1000 1000" xmlns="http://www.w3.org/2000/svg">
  <path d="M336.2,274.5L126.1,484.5h805.4c13,0,23,10,23,23c0,13-10,23-23,23H126.1l210.1,210.1c11,11,11,21,0,32c-5,5-10,7-16,7&#10;&#9;s-11-2-16-7L55.1,523.6c-11-11-11-21,0-32l249.1-249.1C325.2,221.4,357.2,253.4,336.2,274.5z"/>
  <path d="M 551.768 275.712 L 341.668 485.712 L 740.023 495.497 C 753.023 495.497 921.536 493.755 921.536 506.755 C 921.536 519.755 739.324 519.97 726.324 519.97 L 341.668 531.712 L 551.768 741.812 C 562.768 752.812 562.768 762.812 551.768 773.812 C 546.768 778.812 541.768 780.812 535.768 780.812 C 529.768 780.812 524.768 778.812 519.768 773.812 L 270.668 524.812 C 259.668 513.812 259.668 503.812 270.668 492.812 L 519.768 243.712 C 540.768 222.612 572.768 254.612 551.768 275.712 Z"/>
</svg>
